<svg id="104838773" viewBox="0 0 6 6" xmlns="http://www.w3.org/2000/svg" xmlns:xlink="http://www.w3.org/1999/xlink"><defs><marker id="NONE" viewBox="0 0 10 10" refX="5" refY="5" markerWidth="1" markerHeight="1" orient="auto-start-reverse" markerUnits="strokeWidth"></marker><marker id="ROUND" viewBox="0 0 10 10" refX="5" refY="5" markerWidth="1" markerHeight="1" orient="auto-start-reverse" markerUnits="strokeWidth"><circle r="5" cx="5" cy="5" stroke="context-stroke" fill="context-fill"></circle></marker><marker id="SQUARE" viewBox="0 0 10 10" refX="0" refY="5" markerWidth="1" markerHeight="1" orient="auto-start-reverse" markerUnits="strokeWidth"><rect x="0" y="0" width="5" height="10" stroke="context-stroke" fill="context-fill"></rect></marker><marker id="ARROW_LINES" viewBox="0 0 10 10" refX="4" refY="5" markerWidth="10" markerHeight="10" orient="auto-start-reverse" markerUnits="strokeWidth"><path d="M3.3095 4.5L0.3255 1.457C0.1315 1.26 0.1355 0.942998 0.3315 0.749998C0.5295 0.556998 0.8455 0.559998 1.0385 0.756998L4.8575 4.65C5.0475 4.844 5.0475 5.156 4.8575 5.35L1.0385 9.243C0.8455 9.44 0.5285 9.443 0.3315 9.25C0.1345 9.057 0.1315 8.74 0.3255 8.543L3.3095 5.5V4.5Z"></path></marker><marker id="ARROW_EQUILATERAL" viewBox="0 0 10 10" refX="6.5" refY="5" markerWidth="6" markerHeight="6" orient="auto-start-reverse" markerUnits="strokeWidth"><path d="M8 5L0.5 9.33013L0.5 0.669873L8 5Z"></path></marker><marker id="TRIANGLE_FILLED" viewBox="0 0 10 10" refX="5" refY="5" markerWidth="6" markerHeight="6" orient="auto-start-reverse" markerUnits="strokeWidth"><path d="M-5.96244e-08 5L7.5 9.33013L7.5 0.669873L-5.96244e-08 5Z"></path></marker><marker id="CIRCLE_FILLED" viewBox="0 0 10 10" refX="5" refY="5" markerWidth="6" markerHeight="6" orient="auto-start-reverse" markerUnits="strokeWidth"><circle r="3.5" cx="5" cy="5"></circle></marker><marker id="DIAMOND_FILLED" viewBox="0 0 10 10" refX="5" refY="5" markerWidth="6" markerHeight="6" orient="auto-start-reverse" markerUnits="strokeWidth"><rect x="-0.000488281" y="5" width="7.07138" height="7.07138" transform="rotate(-45 -0.000488281 5)"></rect></marker></defs><g transform="matrix(1,0,0,1,0,0)"><g id="104838773" opacity="1" style="mix-blend-mode:normal"><g><g><g transform="matrix(1,0,0,1,1,1)"><g id="102339034" opacity="0" style="mix-blend-mode:normal"><g><g><g style="mix-blend-mode:normal"><defs><linearGradient id="lkcrduad45984808698575375" x1="2" y1="0" x2="2" y2="4" gradientUnits="userSpaceOnUse"><stop offset="75.69%" stop-opacity="1" stop-color="rgb(198, 223, 253)"></stop><stop offset="100%" stop-opacity="0" stop-color="rgb(198, 223, 253)"></stop></linearGradient></defs><path id="102339034_fill_path" d="M2,0l2,1.61041h-1.07692l0,2.38959h-1.84615l0,-2.38959h-1.07692z" fill-rule="nonzero" fill="url(#lkcrduad45984808698575375)"></path></g></g></g></g></g></g></g></g></g><animate href="#102339034" attributeName="opacity" values="0;0;1;1" dur="2s" repeatCount="indefinite" calcMode="spline" keyTimes="0;0.3;0.7;1" keySplines="0.5 0.35 0.15 1;0.5 0.35 0.15 1;0.5 0.35 0.15 1" additive="replace" fill="freeze"></animate></svg>