<?xml version="1.0" encoding="UTF-8" standalone="no"?>
<svg
   width="17.486717"
   height="30"
   viewBox="0 0 17.486717 30"
   fill="none"
   version="1.1"
   id="svg348"
   sodipodi:docname="Icon_Polisi.svg"
   inkscape:export-filename="Icon_Polisi.svg"
   inkscape:export-xdpi="96"
   inkscape:export-ydpi="96"
   xmlns:inkscape="http://www.inkscape.org/namespaces/inkscape"
   xmlns:sodipodi="http://sodipodi.sourceforge.net/DTD/sodipodi-0.dtd"
   xmlns="http://www.w3.org/2000/svg"
   xmlns:svg="http://www.w3.org/2000/svg">
  <sodipodi:namedview
     id="namedview350"
     pagecolor="#ffffff"
     bordercolor="#000000"
     borderopacity="0.25"
     inkscape:showpageshadow="2"
     inkscape:pageopacity="0.0"
     inkscape:pagecheckerboard="0"
     inkscape:deskcolor="#d1d1d1"
     showgrid="false" />
  <g
     clip-path="url(#clip0_868_55194)"
     id="g341"
     transform="translate(-1.512693)">
    <path
       d="M 10.256,30 C 9.39178,30 8.47952,29.9974 7.63662,29.9635 7.47124,29.9556 7.32187,29.9504 7.17783,29.9426 H 7.14582 C 7.00444,29.9321 6.87641,29.9243 6.75371,29.9139 L 6.68435,29.9087 C 6.55365,29.8982 6.42295,29.8878 6.29758,29.8721 L 6.23089,29.8643 C 6.12153,29.8512 6.01483,29.8382 5.90814,29.8251 L 5.83878,29.8147 C 5.72142,29.799 5.60672,29.7808 5.49735,29.7599 L 5.42533,29.7468 C 5.32931,29.7286 5.23861,29.7103 5.14792,29.6894 L 5.08657,29.6738 C 4.98254,29.6503 4.88385,29.6242 4.78782,29.5955 L 4.71847,29.5746 C 4.63578,29.5485 4.55576,29.5224 4.4784,29.4937 L 4.42772,29.4754 C 4.3397,29.4415 4.25701,29.405 4.17698,29.3658 L 4.13164,29.3423 C 4.04628,29.3006 3.97959,29.2614 3.91558,29.2223 L 3.88357,29.204 C 3.81421,29.1596 3.74753,29.11 3.68084,29.0552 c 0,0 -0.04801,-0.0443 -0.05601,-0.0495 l -0.00534,0.0052 -0.14404,-0.154 v -0.0052 c 0,0 -0.01067,-0.0079 -0.016,-0.0131 C 3.4141,28.7864 3.36876,28.7238 3.32608,28.6533 l 0.16004,-0.1226 -0.17338,0.1017 -0.016,-0.0287 C 3.25672,28.5307 3.22472,28.4654 3.20071,28.4002 3.16603,28.3036 3.14203,28.2201 3.12602,28.1261 c 0,-0.0052 -0.00533,-0.0313 -0.00533,-0.0313 V 28.0739 C 3.10468,27.9774 3.09668,27.8913 3.09668,27.8051 V 3.70335 c 0,-0.07569 0.00533,-0.15137 0.01334,-0.22706 0,-0.01566 0.01067,-0.07046 0.01067,-0.07046 C 3.12869,3.35363 3.13936,3.30144 3.15003,3.24924 3.15536,3.22314 3.16337,3.19704 3.17137,3.17094 3.1847,3.12136 3.20071,3.06916 3.21938,3.01957 L 3.24339,2.95172 C 3.27273,2.88125 3.30207,2.81079 3.33675,2.74032 3.37142,2.66986 3.41143,2.602 3.45678,2.53415 3.46478,2.5211 3.49679,2.47412 3.49679,2.47412 3.5288,2.42714 3.56348,2.38017 3.59815,2.33319 3.61416,2.31231 3.63016,2.29143 3.64883,2.26794 3.68618,2.22097 3.72619,2.1766 3.7662,2.12962 L 3.81688,2.07482 C 3.93158,1.95215 4.06228,1.82949 4.20632,1.71466 L 4.26501,1.66768 C 4.31836,1.62592 4.3717,1.58417 4.42772,1.54502 L 4.49974,1.49282 C 4.55842,1.45368 4.61711,1.41453 4.67846,1.37538 L 4.74514,1.33101 C 4.79582,1.2997 4.84917,1.26838 4.89985,1.23967 L 4.95854,1.20574 C 5.00388,1.17964 5.0519,1.15615 5.09724,1.13006 L 5.17993,1.08569 5.32931,1.01 5.41466,0.968247 C 5.45734,0.947368 5.59872,0.882123 5.59872,0.882123 L 5.7881,0.801218 6.03884,0.702044 C 6.08685,0.683776 6.13753,0.665507 6.18821,0.649848 7.39922,0.221836 8.79961,0 10.256,0 c 1.4564,0 2.8408,0.219226 4.0305,0.634189 0.064,0.020878 0.1254,0.044367 0.1894,0.067855 l 0.2534,0.099174 c 0.0293,0.010439 0.056,0.023488 0.0853,0.036538 H 14.82 l 0.0426,0.020878 0.0534,0.020879 0.2081,0.096563 0.112,0.054804 0.0987,0.04959 0.088,0.04698 c 0.0454,0.02349 0.0907,0.04958 0.136,0.07568 l 0.0507,0.02871 c 0.0614,0.03654 0.1121,0.06525 0.1627,0.09656 l 0.0694,0.04437 c 0.0587,0.03915 0.1174,0.0783 0.176,0.11744 l 0.0747,0.05481 c 0.056,0.03915 0.1094,0.0809 0.1627,0.12266 l 0.0614,0.04698 c 0.1414,0.11744 0.2721,0.23749 0.3894,0.36016 l 0.0507,0.05741 c 0.04,0.04437 0.08,0.09135 0.1147,0.13571 0.016,0.02088 0.0347,0.04437 0.0507,0.06525 0.0347,0.04698 0.0693,0.09395 0.1014,0.14093 l 0.04,0.06003 c 0.0426,0.06785 0.0827,0.13571 0.12,0.20617 0.0347,0.07047 0.0667,0.14093 0.0934,0.2114 l 0.024,0.06785 c 0.0186,0.0522 0.0346,0.10179 0.048,0.15398 0.008,0.0261 0.0133,0.04959 0.0187,0.07569 0.0133,0.0522 0.0213,0.10439 0.0293,0.15659 0,0 0.008,0.0548 0.0107,0.07307 0.008,0.07569 0.0133,0.15137 0.0133,0.22706 V 27.8051 c 0,0.0862 -0.008,0.1723 -0.0213,0.2715 0,0.0078 -0.0054,0.0365 -0.0054,0.0365 l -0.0053,0.0183 c -0.016,0.0887 -0.0374,0.1722 -0.0667,0.2505 l -0.008,0.0209 c -0.024,0.0652 -0.056,0.1305 -0.0934,0.1957 -0.008,0.0157 -0.0213,0.0366 -0.0213,0.0366 l -0.008,0.0156 c -0.0453,0.0731 -0.0907,0.1357 -0.1387,0.1905 l -0.1547,0.1749 -0.0107,-0.0078 -0.056,0.0495 c -0.0667,0.0549 -0.1334,0.1044 -0.2027,0.1488 l -0.024,0.0157 c -0.072,0.0443 -0.1387,0.0835 -0.2108,0.1174 l -0.0586,0.0287 c -0.0801,0.0392 -0.1628,0.0757 -0.2508,0.1096 l -0.0347,0.0131 c -0.0933,0.0339 -0.1733,0.0626 -0.256,0.0861 l -0.0694,0.0235 c -0.096,0.0261 -0.192,0.0522 -0.2961,0.0783 l -0.064,0.0156 c -0.088,0.0209 -0.1814,0.0392 -0.2747,0.0575 l -0.0747,0.0156 c -0.1094,0.0183 -0.2241,0.0392 -0.3414,0.0548 l -0.0694,0.0105 c -0.104,0.013 -0.2107,0.0261 -0.3201,0.0391 l -0.0693,0.0078 c -0.1254,0.0131 -0.2561,0.0261 -0.3868,0.0366 l -0.0694,0.0052 c -0.1227,0.0104 -0.248,0.0183 -0.3761,0.0261 h -0.0293 c -0.1627,0.0104 -0.3094,0.0183 -0.4588,0.0235 -0.8589,0.0339 -1.7738,0.0365 -2.6381,0.0365 z"
       fill="#afb1b2"
       id="path177" />
    <path
       d="m 3.29688,20.9336 v 6.8665 c 0,1.9365 3.11554,2.0017 6.95932,2.0017 3.8437,0 6.9619,-0.0679 6.9619,-2.0017 v -6.8665 z"
       fill="#f0f4f7"
       id="path179" />
    <path
       d="m 10.2566,29.321 c 0.1974,0 0.3947,0 0.5895,0 0.1894,0 0.3787,0 0.5628,0 1.4404,0 2.8168,-0.0182 3.7904,-0.2244 1.0403,-0.2218 1.5257,-0.6342 1.5257,-1.2997 V 24.2214 L 3.78809,24.1875 v 3.612 c 0,1.4145 2.20328,1.5215 5.31615,1.5215 0.18672,0 0.37344,0 0.56283,0 0.19472,0 0.39213,0 0.58953,0 z"
       fill="#436aac"
       id="path181" />
    <path
       d="m 8.00251,28.8216 v 0.5398 H 8.80273 V 28.709 l -0.80022,0.0326 z"
       fill="#a6191b"
       id="path183" />
    <path
       d="m 6.66853,28.8677 v 0.6248 h 0.80022 v -0.7249 c -0.38136,0.0258 -0.53348,0.0331 -0.80022,0.0663 z"
       fill="#a6191b"
       id="path185" />
    <path
       d="m 5.33454,28.9118 0.26674,0.5794 h 0.53349 v -0.667 c -0.38136,0.0226 -0.66686,0.058 -0.80023,0.087 z"
       fill="#a6191b"
       id="path187" />
    <path
       d="m 12.5366,28.8216 v 0.5398 H 11.7363 V 28.709 l 0.8003,0.0326 z"
       fill="#a6191b"
       id="path189" />
    <path
       d="m 13.8705,28.8677 v 0.6248 h -0.8002 v -0.7249 c 0.3814,0.0258 0.5335,0.0331 0.8002,0.0663 z"
       fill="#a6191b"
       id="path191" />
    <path
       d="m 15.2045,28.9118 -0.2667,0.5794 h -0.5335 v -0.667 c 0.3814,0.0226 0.6669,0.058 0.8002,0.087 z"
       fill="#a6191b"
       id="path193" />
    <path
       d="m 12.5364,26.0977 v 1.815 h -0.4361 c -0.1476,0 -0.2476,-0.0413 -0.3021,-0.1281 -0.0545,-0.0847 -0.0817,-0.2128 -0.0863,-0.3821 v -0.0391 c 0,-0.1802 0.0273,-0.317 0.0795,-0.4103 0.0545,-0.0934 0.1522,-0.139 0.2975,-0.139 h 0.1568 v -0.7164 h 0.2884 z m -0.2885,0.9422 H 12.148 c -0.0613,0 -0.0999,0.0217 -0.1181,0.0673 -0.0182,0.0456 -0.0273,0.1303 -0.0273,0.2562 v 0.0347 c 0,0.1064 0.0114,0.1846 0.0296,0.2302 0.0181,0.0456 0.0567,0.0694 0.1158,0.0694 h 0.1022 v -0.66 z"
       fill="#f1f2f2"
       id="path195" />
    <path
       d="m 10.7797,26.2249 c 0.0646,-0.0848 0.1693,-0.1272 0.3119,-0.1272 0.1427,0 0.2474,0.0424 0.3142,0.1293 0.0669,0.0869 0.1003,0.2142 0.1003,0.388 v 0.81 c 0,0.3244 -0.1381,0.4877 -0.4189,0.4877 -0.1448,0 -0.2473,-0.0403 -0.3097,-0.123 -0.0624,-0.0827 -0.0959,-0.2036 -0.0959,-0.3626 v -0.81 c 0,-0.1738 0.0312,-0.3032 0.0981,-0.388 z m 0.4145,0.1675 c -0.0156,-0.0403 -0.0513,-0.0615 -0.1026,-0.0615 -0.0512,0 -0.0846,0.0212 -0.1025,0.0636 -0.0156,0.0424 -0.0245,0.1145 -0.0245,0.2163 v 0.8248 c 0,0.0848 0.0089,0.1463 0.0245,0.1845 0.0156,0.0381 0.0491,0.0572 0.0981,0.0572 0.049,0 0.0824,-0.0191 0.1025,-0.0572 0.02,-0.0382 0.029,-0.0997 0.029,-0.1824 v -0.8269 c 0,-0.1039 -0.009,-0.176 -0.0245,-0.2184 z"
       fill="#f1f2f2"
       id="path197" />
    <path
       d="m 10.4758,26.0977 v 1.815 H 10.2031 V 26.3343 H 9.85742 v -0.2345 h 0.61838 z"
       fill="#f1f2f2"
       id="path199" />
    <path
       d="m 9.70611,26.0977 v 1.815 H 9.44434 v -1.815 z"
       fill="#f1f2f2"
       id="path201" />
    <path
       d="m 8.26372,26.0977 v 1.815 H 8.00195 v -1.815 z"
       fill="#f1f2f2"
       id="path203" />
    <path
       d="m 9.23854,27.3982 c 0,0.1594 -0.04124,0.285 -0.12372,0.3768 -0.0819,0.0918 -0.1961,0.1377 -0.34259,0.1377 -0.13496,0 -0.25435,-0.0354 -0.35817,-0.1063 v -0.3478 c 0.08536,0.0532 0.15746,0.0906 0.21629,0.1123 0.0594,0.0218 0.11362,0.0326 0.16264,0.0326 0.05883,0 0.10382,-0.0157 0.13496,-0.0471 0.03172,-0.0314 0.04759,-0.0781 0.04759,-0.14 0,-0.0347 -0.00693,-0.0653 -0.02077,-0.0918 C 8.94093,27.2972 8.92045,27.271 8.89335,27.2461 8.86682,27.2211 8.81231,27.1813 8.72984,27.1265 8.65255,27.0758 8.59459,27.0271 8.55594,26.9804 8.5173,26.9337 8.48645,26.8794 8.46338,26.8174 8.4403,26.7554 8.42877,26.6829 8.42877,26.6 c 0,-0.1562 0.03778,-0.2789 0.11333,-0.3683 0.07613,-0.0894 0.1811,-0.134 0.31491,-0.134 0.06575,0 0.12833,0.0108 0.18774,0.0326 0.05998,0.0217 0.12256,0.0523 0.18773,0.0917 L 9.14597,26.5131 C 9.07849,26.4744 9.02254,26.4475 8.97813,26.4322 8.9343,26.4169 8.89104,26.4092 8.84836,26.4092 c -0.05075,0 -0.08969,0.0165 -0.11679,0.0495 -0.02711,0.033 -0.04066,0.0761 -0.04066,0.1292 0,0.033 0.00547,0.062 0.01643,0.087 0.01096,0.0241 0.02826,0.0479 0.05191,0.0712 0.02423,0.0226 0.08104,0.0636 0.17043,0.1232 0.11824,0.0789 0.19927,0.1582 0.24311,0.2379 0.04383,0.0789 0.06575,0.1759 0.06575,0.291 z"
       fill="#ffffff"
       id="path205" />
    <path
       d="m 11.4116,29.3838 c -0.1867,0 -0.3734,0 -0.5628,0 -0.3894,0 -0.7895,0 -1.17897,0 -0.18939,0 -0.37878,0 -0.56283,0 -3.14755,0 -5.37751,-0.1148 -5.37751,-1.5816 v -3.6407 c 0,0 0.00267,-0.0156 0.008,-0.0209 0.00534,-0.0052 0.01334,-0.0078 0.02134,-0.0078 l 12.99827,0.0339 c 0.0161,0 0.0294,0.0131 0.0294,0.0314 v 3.6067 c 0,0.6995 -0.4988,1.1301 -1.5738,1.3572 -0.9789,0.2087 -2.358,0.2244 -3.8037,0.2244 z m -1.1523,-0.0626 c 0.1974,0 0.3948,0 0.5895,0 0.1894,0 0.3788,0 0.5628,0 1.4405,0 2.8168,-0.0183 3.7904,-0.2245 1.0403,-0.2218 1.5258,-0.6342 1.5258,-1.2997 V 24.2215 L 3.79084,24.1876 v 3.612 c 0,1.4146 2.20329,1.5216 5.31616,1.5216 0.18672,0 0.37344,0 0.56283,0 0.19472,0 0.39207,0 0.58947,0 z"
       fill="#383839"
       id="path207" />
    <path
       d="m 10.2562,0.199219 c -3.84378,0 -6.95932,1.568511 -6.95932,3.505001 v 5.3632 H 17.2181 v -5.3632 c 0,-1.93649 -3.1155,-3.505001 -6.9619,-3.505001 z"
       fill="#ffffff"
       id="path209" />
    <path
       d="m 10.2683,0.521484 c -3.60881,0 -6.53392,1.523276 -6.53392,3.403916 V 9.13393 H 16.8047 V 3.9254 c 0,-1.88064 -2.9251,-3.403916 -6.5364,-3.403916 z"
       fill="#436aac"
       id="path211" />
    <path
       d="M 16.7569,8.64698 H 3.75857 c -0.016,0 -0.03201,-0.01305 -0.03201,-0.03132 v -4.9117 c 0,-1.6729 2.99017,-3.084819 6.52984,-3.084819 3.5397,0 6.5298,1.411919 6.5298,3.084819 v 4.9117 c 0,0.01566 -0.0133,0.03132 -0.0293,0.03132 z M 3.78791,8.58695 H 16.7249 V 3.70396 c 0,-1.63897 -2.9635,-3.024793 -6.4685,-3.024793 -3.50499,0 -6.46849,1.385823 -6.46849,3.024793 z"
       fill="#383839"
       id="path213" />
    <path
       d="M 17.2181,9.06641 H 3.29688 V 21.3744 H 17.2181 Z"
       fill="#ececec"
       id="path215" />
    <path
       d="M 4.41699,16.5303 3.66211,16.3789 v 5.6607 c 0,0 0.50147,-1.1822 0.75488,-1.8425 z"
       fill="#313f42"
       id="path217" />
    <path
       d="M 4.41699,12.5604 3.66211,10.248 v 5.9139 l 0.75488,0.1488 z"
       fill="#313f42"
       id="path219" />
    <path
       d="m 3.81415,16.5655 0.44813,0.0887 v 3.5181 c -0.1227,0.3158 -0.29875,0.7464 -0.44813,1.1092 z M 3.66211,16.3828 v 5.6607 c 0,0 0.50147,-1.1822 0.75488,-1.8425 v -3.6668 z"
       fill="#29373a"
       id="path221" />
    <path
       d="m 3.81415,11.2117 0.44813,1.3728 V 16.126 L 3.81415,16.0373 V 11.2091 M 3.66211,10.2461 V 16.16 l 0.75488,0.1487 v -3.7503 z"
       fill="#29373a"
       id="path223" />
    <path
       d="m 16.0947,16.5303 0.7576,-0.1514 v 5.6607 c 0,0 -0.5015,-1.1822 -0.7576,-1.8425 z"
       fill="#313f42"
       id="path225" />
    <path
       d="m 16.0947,12.5604 0.7576,-2.3124 v 5.9139 l -0.7576,0.1488 z"
       fill="#313f42"
       id="path227" />
    <path
       d="m 16.6976,16.5655 v 4.716 c -0.1494,-0.3628 -0.3255,-0.7934 -0.4482,-1.1092 v -3.5181 z m 0.1547,-0.1827 -0.7576,0.1514 v 3.6668 c 0.2534,0.6603 0.7576,1.8425 0.7576,1.8425 z"
       fill="#29373a"
       id="path229" />
    <path
       d="m 16.6976,11.2124 v 4.8282 l -0.4482,0.0887 v -3.5415 l 0.4482,-1.3728 m 0.1547,-0.963 -0.7576,2.3123 v 3.7503 l 0.7576,-0.1488 z"
       fill="#29373a"
       id="path231" />
    <path
       d="m 10.2666,7.07617 c -3.60369,0 -6.52985,0.69683 -6.57519,1.5659 0,0.00783 0,0.01305 0,0.02088 0,0.0261 0.00266,0.05481 0.008,0.0809 0,0.00261 0,0.00522 0,0.00783 l 0.02667,0.08352 1.19234,3.5911 c 0.7282,-0.3053 2.84079,-0.5246 5.33478,-0.5246 2.4941,0 4.6067,0.2193 5.3349,0.5246 L 16.7484,8.92915 16.8418,8.6499 C 16.8124,7.77822 13.8783,7.07617 10.2639,7.07617 Z"
       fill="#313f42"
       id="path233" />
    <path
       d="m 10.2559,7.07878 c -3.59833,0 -6.51915,0.69683 -6.56449,1.56329 0,0.00783 0,0.01305 0,0.02088 0,0.0261 0.00266,0.05481 0.008,0.0809 0,0.00261 0,0.00522 0,0.00783 L 3.72608,8.8352 4.91842,12.4263 C 5.64662,12.121 7.75921,11.9017 10.2532,11.9017 V 7.07617 Z"
       fill="#4c575c"
       id="path235" />
    <path
       d="m 10.267,7.22689 c 3.7211,0 6.3485,0.73858 6.4232,1.40408 l -0.0854,0.25316 -1.1123,3.34837 c -0.8776,-0.2897 -2.9288,-0.4776 -5.2388,-0.4776 -2.30998,0 -4.36122,0.1906 -5.2388,0.4776 L 3.87058,8.79017 3.8439,8.71449 C 3.84123,8.69883 3.83857,8.68317 3.83857,8.6649 c 0,-0.00522 0,-0.00783 0,-0.01305 C 3.87324,7.97852 6.51932,7.2295 10.2617,7.2295 m 0,-0.15138 c -3.60368,0 -6.52983,0.69683 -6.57518,1.5659 0,0.00783 0,0.01305 0,0.02088 0,0.0261 0.00267,0.05481 0.00801,0.08091 0,0.00261 0,0.00522 0,0.00783 L 3.7212,8.83715 4.91353,12.4283 c 0.72821,-0.3054 2.8408,-0.5246 5.33487,-0.5246 2.494,0 4.6066,0.2192 5.3348,0.5246 L 16.7435,8.9311 16.8369,8.65185 C 16.8075,7.78017 13.8734,7.07812 10.259,7.07812 Z"
       fill="#29373a"
       id="path237" />
    <path
       d="m 10.2695,25.5181 c 3.6037,0 6.5298,-0.6968 6.5752,-1.5659 0,-0.0078 0,-0.013 0,-0.0209 0,-0.0261 -0.0027,-0.0548 -0.008,-0.0809 0,-0.0026 0,-0.0078 0,-0.0078 L 16.81,23.7591 15.6177,20.168 c -0.7309,0.3053 -2.8408,0.5245 -5.3348,0.5245 -2.49408,0 -4.60401,-0.2192 -5.33488,-0.5245 L 3.7877,23.6651 3.69434,23.9444 c 0.02934,0.8717 2.96349,1.5737 6.57786,1.5737 z"
       fill="#313f42"
       id="path239" />
    <path
       d="m 10.2559,20.6925 c -2.48335,0 -4.58527,-0.2192 -5.31081,-0.5245 l -1.16032,3.4971 -0.09336,0.2793 c 0.02934,0.8717 2.95549,1.5711 6.56719,1.5737 v -4.8256 z"
       fill="#4c575c"
       id="path241" />
    <path
       d="m 5.04138,20.3644 c 0.87758,0.2897 2.92882,0.4802 5.23882,0.4802 2.31,0 4.3612,-0.1905 5.2388,-0.4802 l 1.1443,3.4423 0.024,0.0757 c 0.0027,0.0157 0.0054,0.0287 0.0054,0.0496 0,0.0052 0,0.0078 0,0.0131 -0.0347,0.6733 -2.6808,1.4223 -6.4232,1.4223 -3.74237,0 -6.3511,-0.7386 -6.42312,-1.4041 L 3.93174,23.7102 5.04405,20.3618 M 4.94802,20.166 3.7877,23.6632 3.69434,23.9424 c 0.02934,0.8717 2.96349,1.5738 6.57786,1.5738 3.6143,0 6.5298,-0.6969 6.5752,-1.5659 0,-0.0079 0,-0.0131 0,-0.0209 0,-0.0261 -0.0027,-0.0548 -0.008,-0.0809 0,-0.0026 0,-0.0078 0,-0.0078 L 16.8127,23.7571 15.6203,20.166 c -0.7308,0.3054 -2.8407,0.5246 -5.3348,0.5246 -2.49401,0 -4.60394,-0.2192 -5.33481,-0.5246 z"
       fill="#29373a"
       id="path243" />
    <path
       d="m 3.68945,23.9451 0.06669,-0.201 v 0.415 C 3.71346,24.0912 3.69212,24.0182 3.68945,23.9451 Z"
       fill="#313f42"
       id="path245" />
    <path
       d="m 15.6336,20.0666 v -7.579 l 0.0133,-0.0391 c -0.6722,-0.3184 -2.8301,-0.5481 -5.3908,-0.5481 -2.56074,0 -4.71601,0.2323 -5.39087,0.5481 l 0.01334,0.0391 v 7.7486 l -0.01334,0.0391 c 0.67219,0.3158 2.83013,0.5481 5.39087,0.5481 2.5607,0 4.7186,-0.2323 5.3908,-0.5481 l -0.0133,-0.0391 z"
       fill="#ffffff"
       id="path247" />
    <path
       d="m 10.2559,20.4036 c -2.3793,0 -4.1798,-0.1957 -4.94535,-0.415 v -7.2475 c 0.76555,-0.2192 2.56605,-0.4149 4.94535,-0.4149 2.3794,0 4.1799,0.1957 4.9454,0.4149 v 7.2475 c -0.7655,0.2193 -2.566,0.415 -4.9454,0.415 z"
       fill="#f1f2f2"
       id="path249" />
    <path
       d="M 16.9057,2.67071 16.5696,2.99694 C 16.5536,2.96301 16.5323,2.92908 16.5109,2.89516 16.5056,2.88472 16.5003,2.87428 16.4923,2.86384 16.4869,2.8534 16.4789,2.84296 16.4736,2.83252 16.4523,2.8012 16.4309,2.76988 16.4096,2.73857 16.3802,2.69681 16.3509,2.66027 16.3189,2.62112 16.2922,2.59242 16.2682,2.5611 16.2389,2.52978 16.2229,2.51412 16.2095,2.49846 16.1935,2.48019 16.1588,2.44366 16.1215,2.40973 16.0868,2.37319 16.0468,2.33404 16.0015,2.2949 15.9588,2.25836 H 15.9535 C 15.9081,2.21921 15.8574,2.17745 15.8094,2.14092 15.676,2.03652 15.532,1.93735 15.372,1.84339 15.3613,1.83818 15.3506,1.83035 15.34,1.82513 15.3319,1.81991 15.3266,1.8173 15.3186,1.81208 15.2679,1.78337 15.2146,1.75205 15.1639,1.72595 15.1026,1.69202 15.0412,1.6581 14.9772,1.62939 14.9185,1.60068 14.8598,1.56936 14.7985,1.54326 14.7318,1.51195 14.6624,1.48063 14.5904,1.44931 14.449,1.38928 14.305,1.33187 14.1556,1.27967 13.062,0.882977 11.7069,0.648093 10.2585,0.648093 8.81012,0.648093 7.45507,0.882977 6.36143,1.27706 6.21206,1.33187 6.06802,1.38928 5.92664,1.44931 5.85462,1.47802 5.78527,1.50934 5.71859,1.54326 5.65724,1.57197 5.59855,1.60068 5.53987,1.62939 5.47585,1.6581 5.4145,1.69202 5.35315,1.72595 5.2998,1.75466 5.24645,1.78337 5.19844,1.81208 5.19044,1.8173 5.18244,1.81991 5.1771,1.82513 5.16643,1.83296 5.15576,1.83818 5.14509,1.84339 4.98771,1.93735 4.84367,2.03913 4.70764,2.14092 4.65695,2.17745 4.60894,2.2166 4.5636,2.25836 c 0,0 0,0 -0.00534,0 C 4.51558,2.2949 4.4729,2.33404 4.43022,2.37319 4.39288,2.40712 4.3582,2.44366 4.32353,2.48019 4.30752,2.49846 4.29419,2.51151 4.27818,2.52978 4.24884,2.55849 4.22483,2.59242 4.19816,2.62112 4.16615,2.66027 4.13681,2.69681 4.10747,2.73857 4.08613,2.76727 4.06479,2.79859 4.04345,2.83252 4.03811,2.84296 4.03011,2.8534 4.02478,2.86384 4.01678,2.87428 4.00877,2.88472 4.00611,2.89516 3.98477,2.92908 3.96609,2.96301 3.94742,2.99694 L 3.61133,2.67071 C 3.638,2.62112 3.67268,2.57676 3.70469,2.52717 3.7367,2.48019 3.77404,2.43322 3.81138,2.38885 3.84339,2.34709 3.88074,2.30273 3.91808,2.26358 3.92342,2.25836 3.92342,2.25575 3.92875,2.25053 c 0,0 0.008,-0.00783 0.01067,-0.01305 C 4.01678,2.15135 4.1048,2.06523 4.19549,1.98694 4.23284,1.95301 4.27018,1.91908 4.31286,1.88776 4.32353,1.87732 4.33686,1.86949 4.34753,1.85905 4.38488,1.82774 4.42489,1.79642 4.46223,1.76771 4.53159,1.71551 4.60094,1.66593 4.67296,1.61634 4.73164,1.57719 4.79033,1.53804 4.85168,1.4989 4.91569,1.46236 4.97704,1.42321 5.04106,1.38667 5.07307,1.36841 5.10508,1.35014 5.13709,1.33187 5.17177,1.3136 5.20377,1.29533 5.23845,1.27967 5.29447,1.25096 5.35048,1.21965 5.40917,1.19355 5.41984,1.18572 5.43051,1.18311 5.44117,1.17528 5.45718,1.16745 5.47318,1.15962 5.48919,1.1544 5.5372,1.13091 5.58788,1.10742 5.63856,1.08393 5.6439,1.08393 5.6519,1.0761 5.65724,1.0761 5.72926,1.04479 5.80661,1.01347 5.8813,0.982151 5.92131,0.966492 5.95599,0.953443 5.996,0.937784 6.05735,0.911685 6.12403,0.888197 6.19072,0.864709 6.24407,0.84644 6.29742,0.828171 6.35343,0.807292 7.46574,0.426257 8.80745,0.207031 10.2505,0.207031 c 1.4431,0 2.7875,0.219226 3.8971,0.600261 0.056,0.018269 0.1094,0.036538 0.1627,0.057417 0.0667,0.023488 0.1307,0.046976 0.1948,0.073075 0.04,0.015659 0.0746,0.028708 0.1147,0.044367 0.0746,0.031319 0.152,0.062639 0.224,0.093949 0.0053,0 0.0134,0.00522 0.0187,0.00783 0.0507,0.02349 0.0987,0.04698 0.1494,0.07047 0.016,0.00522 0.032,0.01305 0.048,0.02088 0.0106,0.00522 0.0213,0.01044 0.032,0.01827 0.0587,0.0261 0.1147,0.06002 0.1707,0.08612 0.0347,0.01827 0.0667,0.03393 0.1014,0.0522 0.032,0.01827 0.064,0.03654 0.096,0.0548 0.064,0.03654 0.128,0.07308 0.1894,0.11223 0.0613,0.03653 0.12,0.07568 0.1787,0.11744 0.0747,0.04959 0.144,0.09917 0.2107,0.15137 0.04,0.02871 0.0774,0.06264 0.1147,0.09395 0.0134,0.00783 0.0267,0.01827 0.0374,0.02871 0.04,0.03132 0.08,0.06525 0.1173,0.09918 0.0267,0.01826 0.048,0.03914 0.072,0.06263 0.0241,0.02088 0.0454,0.04437 0.0694,0.06786 0.04,0.03914 0.0774,0.0809 0.1174,0.12005 0,0.00522 0.0053,0.00783 0.0106,0.01305 0,0 0.0054,0.00783 0.0107,0.01305 0.0373,0.03915 0.0747,0.0809 0.1067,0.12527 0.0373,0.04698 0.0747,0.09134 0.1067,0.13832 0.032,0.04959 0.064,0.09395 0.0934,0.14354 z"
       fill="#ffffff"
       id="path251" />
    <path
       d="m 6.59677,6.96119 c 0,0.06525 -0.05334,0.11484 -0.12003,0.11484 -0.06668,0 -0.11736,-0.0522 -0.11736,-0.11484 0,-0.06263 0.05334,-0.11744 0.11736,-0.11744 0.06402,0 0.12003,0.0522 0.12003,0.11744 z"
       fill="#383839"
       id="path253" />
    <path
       d="m 14.2738,6.96119 c 0,0.06525 -0.0534,0.11484 -0.1174,0.11484 -0.064,0 -0.1173,-0.0522 -0.1173,-0.11484 0,-0.06263 0.0533,-0.11744 0.1173,-0.11744 0.064,0 0.1174,0.0522 0.1174,0.11744 z"
       fill="#383839"
       id="path255" />
    <path
       d="M 12.4333,0.0371094 H 8.08008 V 0.352899 h 4.35322 z"
       fill="#404040"
       id="path257" />
    <path
       d="M 12.4333,29.6445 H 8.08008 v 0.3158 h 4.35322 z"
       fill="#808080"
       id="path259" />
    <path
       d="m 16.3508,29.1361 c -0.7709,0.4123 -2.0005,0.5689 -3.4836,0.6289 v -0.4254 c 1.3684,-0.0339 2.5047,-0.1409 3.1849,-0.4958 z"
       fill="#b7121a"
       id="path261" />
    <path
       d="M 7.64478,29.3416 V 29.767 C 6.16169,29.7069 4.93202,29.5504 4.16113,29.138 l 0.29875,-0.2923 c 0.68019,0.3549 1.81651,0.4619 3.1849,0.4959 z"
       fill="#b7121a"
       id="path263" />
    <path
       d="m 17.0741,9.94322 1.9125,0.61848 c 0,0 0.1974,-1.1535 -0.9576,-1.1535 h -1.155 v 0.57678 l 0.1974,-0.04176 z"
       fill="#f4f4f4"
       id="path265" />
    <path
       d="M 3.43804,9.94322 1.5255,10.5617 c 0,0 -0.19738,-1.1535 0.95761,-1.1535 H 3.6381 V 9.98498 L 3.44071,9.94322 Z"
       fill="#f4f4f4"
       id="path267" />
    <path
       d="M 16.9062,2.66944 16.5701,2.99567 C 16.5541,2.96174 16.5327,2.92781 16.5114,2.89388 16.5061,2.88344 16.5007,2.873 16.4927,2.86256 16.4874,2.85213 16.4794,2.84169 16.474,2.83125 16.4527,2.79993 16.4314,2.76861 16.41,2.73729 16.3807,2.69554 16.3513,2.659 16.3193,2.61985 16.2927,2.59114 16.2687,2.55982 16.2393,2.52851 16.2233,2.51285 16.21,2.49719 16.194,2.47892 16.1593,2.44238 16.1219,2.40845 16.0873,2.37192 16.0473,2.33538 16.0019,2.29362 15.9592,2.25708 H 15.9539 C 15.9059,2.21794 15.8579,2.17879 15.8099,2.13964 15.7538,2.09527 15.6925,2.05352 15.6311,2.00915 15.6125,1.9961 15.5965,1.98305 15.5805,1.97 15.5138,1.92564 15.4471,1.88127 15.3751,1.83951 15.3644,1.83429 15.3537,1.82646 15.3431,1.82124 15.3351,1.81602 15.3297,1.81341 15.3217,1.80819 15.2124,1.74817 15.1003,1.68553 14.983,1.6255 14.9243,1.59419 14.8629,1.56548 14.8042,1.53677 14.7562,1.51328 14.7082,1.4924 14.6602,1.47152 14.6415,1.46109 14.6202,1.45326 14.5989,1.44282 14.4788,1.39323 14.3534,1.34103 14.2254,1.29667 14.2067,1.28884 14.1854,1.28101 14.1641,1.27318 V 0.792969 c 0.056,0.018269 0.1093,0.036537 0.1627,0.057416 0.0266,0.010439 0.0507,0.018269 0.0773,0.028708 0.04,0.013049 0.0774,0.028708 0.1174,0.044367 0.04,0.015659 0.0747,0.028708 0.1147,0.044367 0.0187,0.00783 0.04,0.018269 0.0613,0.026099 0.0534,0.023484 0.1094,0.046974 0.1628,0.070464 0.0053,0 0.0133,0.00522 0.0186,0.00783 0.0507,0.02349 0.0987,0.04698 0.1494,0.07047 0.016,0.00522 0.032,0.01305 0.048,0.02087 0.0107,0.00522 0.0214,0.01044 0.032,0.01827 0.0587,0.0261 0.1147,0.06003 0.1707,0.08613 0.0347,0.01827 0.0667,0.03393 0.1014,0.05219 0.032,0.01827 0.064,0.03654 0.096,0.05481 0.016,0.01044 0.0347,0.01827 0.0507,0.03132 0.048,0.0261 0.0934,0.0522 0.1387,0.0809 0.0614,0.03654 0.1201,0.07569 0.1787,0.11745 0.1307,0.08612 0.2508,0.17746 0.3628,0.27142 0.04,0.03132 0.08,0.06524 0.1174,0.09917 0.048,0.04176 0.096,0.08613 0.1413,0.13049 0.0401,0.03915 0.0774,0.08091 0.1174,0.12006 0,0.00522 0.0053,0.00783 0.0107,0.01304 0.1227,0.13572 0.2294,0.27665 0.3174,0.42019 z"
       fill="#bad0da"
       id="path269" />
    <path
       d="m 15.5247,1.41496 c -0.1387,0.0522 -0.3388,0.08352 -0.5655,0.08352 -0.1094,0 -0.2108,-0.00783 -0.3068,-0.02349 C 14.6337,1.46455 14.6124,1.45672 14.5911,1.44628 14.471,1.39669 14.3457,1.3445 14.2176,1.30013 14.2016,1.28186 14.1963,1.26098 14.1963,1.2401 c 0,-0.10961 0.2054,-0.20356 0.4935,-0.2401 0.0533,0.02349 0.1093,0.04698 0.1627,0.07047 0.0053,0 0.0133,0.00522 0.0186,0.00782 0.0507,0.02349 0.0987,0.04698 0.1494,0.07047 0.016,0.00522 0.032,0.01305 0.048,0.02088 0.0107,0.00522 0.0214,0.01044 0.032,0.01827 0.0587,0.0261 0.1147,0.06002 0.1708,0.08612 0.0346,0.01827 0.0666,0.03393 0.1013,0.0522 0.032,0.01827 0.064,0.03654 0.096,0.05481 0.0161,0.01043 0.0347,0.01826 0.0507,0.03131 z"
       fill="#d4effc"
       id="path271" />
    <path
       d="M 16.5779,2.23342 C 16.5379,2.19428 16.5032,2.15252 16.4605,2.11337 16.4152,2.06901 16.3672,2.02464 16.3192,1.98288 16.2818,1.94895 16.2445,1.91503 16.2018,1.88371 16.1564,1.84456 16.1111,1.80802 16.0604,1.77148 c -0.224,0.04437 -0.3788,0.12789 -0.3788,0.22184 0,0.03393 0.0187,0.06786 0.0561,0.09656 0.0053,0.00522 0.008,0.00783 0.0133,0.01044 0.12,0.08613 0.3868,0.14876 0.6962,0.14876 0.048,0 0.0933,0 0.1387,-0.00522 -0.0053,-0.00522 -0.008,-0.00783 -0.0107,-0.01044 z"
       fill="#d4effc"
       id="path273" />
    <path
       d="M 6.35929,0.798828 V 1.27904 C 6.34062,1.28426 6.31928,1.2947 6.29794,1.30253 6.1699,1.34689 6.04453,1.39909 5.9245,1.44868 5.90583,1.45651 5.88449,1.46694 5.86315,1.47738 5.81247,1.49826 5.76712,1.51914 5.71911,1.54263 5.65776,1.57395 5.59908,1.60005 5.54039,1.62875 5.42303,1.68878 5.30833,1.75142 5.20163,1.81144 5.19363,1.81666 5.18563,1.81927 5.18029,1.82449 5.16962,1.83232 5.15895,1.83754 5.14828,1.84276 5.07626,1.88452 5.00958,1.92888 4.94289,1.97325 4.92422,1.9863 4.90822,1.99935 4.89221,2.0124 4.82819,2.05416 4.76951,2.09591 4.7135,2.14289 4.66281,2.17943 4.61747,2.21858 4.56945,2.26033 c 0,0 0,0 -0.00533,0 C 4.52144,2.29687 4.47876,2.33863 4.43608,2.37517 4.39874,2.40909 4.36406,2.44563 4.32939,2.48217 4.31338,2.50044 4.30005,2.51349 4.28404,2.53176 4.2547,2.56046 4.23069,2.59439 4.20402,2.6231 4.17201,2.66225 4.14267,2.69878 4.11333,2.74054 4.09199,2.76925 4.07065,2.80057 4.04931,2.8345 4.04397,2.84494 4.03597,2.85537 4.03064,2.86581 4.02263,2.87625 4.0173,2.88669 4.01196,2.89713 3.99063,2.93106 3.97195,2.96499 3.95328,2.99892 L 3.61719,2.67269 C 3.70521,2.52915 3.81191,2.38821 3.93461,2.2525 3.93994,2.24728 3.94261,2.24467 3.94528,2.23945 3.98529,2.20031 4.01997,2.15855 4.06265,2.1194 4.10799,2.07504 4.15601,2.03067 4.20402,1.98891 4.24136,1.95498 4.27871,1.92106 4.32139,1.88974 4.43342,1.79578 4.55612,1.70444 4.68415,1.61831 4.74284,1.57917 4.80152,1.54002 4.86287,1.50087 4.90822,1.47477 4.95356,1.44607 5.00158,1.41997 5.01758,1.40692 5.03625,1.39909 5.05226,1.38865 5.08427,1.37038 5.11627,1.35211 5.14828,1.33384 5.18296,1.31557 5.21497,1.29731 5.24965,1.28165 5.30566,1.25294 5.36168,1.22162 5.42036,1.19552 5.43103,1.18769 5.4417,1.18508 5.45237,1.17725 5.46837,1.16942 5.48438,1.16159 5.50038,1.15637 5.5484,1.13289 5.59908,1.1094 5.64976,1.08591 5.65509,1.08591 5.66309,1.07808 5.66843,1.07808 5.72178,1.05459 5.77513,1.0311 5.83114,1.00761 5.84981,0.999785 5.87115,0.989346 5.89249,0.981516 5.9325,0.965857 5.96718,0.952808 6.00719,0.937149 6.04454,0.92149 6.08455,0.905831 6.12456,0.892782 6.15123,0.882343 6.17791,0.874513 6.20191,0.864074 6.25526,0.845805 6.30861,0.827536 6.36463,0.806658 Z"
       fill="#bad0da"
       id="path275" />
    <path
       d="m 6.31958,1.2414 c 0,0.02088 -0.00533,0.04176 -0.02134,0.06003 C 6.17021,1.34579 6.04484,1.39799 5.92481,1.44758 5.90613,1.45541 5.8848,1.46585 5.86346,1.47629 5.76743,1.49194 5.66607,1.49977 5.5567,1.49977 5.33264,1.49977 5.12992,1.46846 4.99121,1.41626 5.00722,1.40321 5.02589,1.39538 5.04189,1.38494 5.0739,1.36667 5.10591,1.3484 5.13792,1.33014 5.1726,1.31187 5.2046,1.2936 5.23928,1.27794 5.2953,1.24923 5.35131,1.21791 5.41,1.19181 5.42067,1.18398 5.43133,1.18137 5.442,1.17355 5.45801,1.16572 5.47401,1.15789 5.49002,1.15267 5.53803,1.12918 5.58871,1.10569 5.63939,1.0822 5.64473,1.0822 5.65273,1.07437 5.65806,1.07437 5.71141,1.05088 5.76476,1.02739 5.82078,1.00391 6.10886,1.04044 6.31425,1.1344 6.31425,1.24401 Z"
       fill="#d4effc"
       id="path277" />
    <path
       d="M 3.93476,2.23342 C 3.97477,2.19428 4.00945,2.15252 4.05213,2.11337 4.09747,2.06901 4.14549,2.02464 4.1935,1.98288 4.23084,1.94895 4.26819,1.91503 4.31087,1.88371 4.35621,1.84456 4.40156,1.80802 4.45224,1.77148 4.6763,1.81585 4.83101,1.89937 4.83101,1.99332 4.83101,2.02725 4.81234,2.06118 4.775,2.08988 4.76966,2.0951 4.76699,2.09771 4.76166,2.10032 4.64163,2.18645 4.37488,2.24908 4.06546,2.24908 c -0.04801,0 -0.09336,0 -0.1387,-0.00522 0.00533,-0.00522 0.008,-0.00783 0.01067,-0.01044 z"
       fill="#d4effc"
       id="path279" />
    <path
       d="M 3.79583,2.40039 C 3.72648,2.48912 3.66246,2.57786 3.60645,2.6692 L 3.94254,2.99543 C 3.96121,2.9615 3.97988,2.92758 4.00122,2.89365 4.00922,2.88321 4.01189,2.87277 4.01989,2.86233 4.02523,2.85189 4.03323,2.84145 4.03857,2.83101 4.05991,2.79969 4.08125,2.76838 4.10258,2.73706 4.10792,2.72923 4.11325,2.72401 4.11859,2.71618 Z"
       fill="#f05a22"
       id="path281" />
    <path
       d="m 16.7163,2.40039 c 0.0694,0.08873 0.1361,0.17747 0.1894,0.26881 L 16.5696,2.99543 C 16.5536,2.9615 16.5323,2.92758 16.5109,2.89365 16.5056,2.88321 16.5003,2.87277 16.4922,2.86233 16.4869,2.85189 16.4789,2.84145 16.4736,2.83101 16.4522,2.79969 16.4309,2.76838 16.4096,2.73706 16.4042,2.72923 16.3989,2.72401 16.3936,2.71618 Z"
       fill="#f05a22"
       id="path283" />
    <path
       d="M 7.64478,29.3416 V 29.767 C 6.16169,29.7069 4.93202,29.5504 4.16113,29.138 l 0.29875,-0.2923 c 0.68019,0.3549 1.81651,0.4619 3.1849,0.4959 z"
       fill="#b7121a"
       id="path285" />
    <path
       d="m 16.3508,29.1361 c -0.7709,0.4123 -2.0005,0.5689 -3.4836,0.6289 v -0.4254 c 1.3684,-0.0339 2.5047,-0.1409 3.1849,-0.4958 z"
       fill="#b7121a"
       id="path287" />
    <path
       d="m 15.9347,29.0742 c -0.6562,0.3393 -1.7498,0.4437 -3.0675,0.4776 v 0.214 c 1.3417,-0.0522 2.47,-0.1879 3.2436,-0.5193 z"
       fill="#d4effc"
       id="path289" />
    <path
       d="m 4.57715,29.0742 c 0.65619,0.3393 1.74983,0.4437 3.06753,0.4776 v 0.214 C 6.30297,29.7136 5.17466,29.5779 4.39844,29.2465 l 0.17605,-0.1723 z"
       fill="#d4effc"
       id="path291" />
    <path
       d="m 14.9369,1.95854 -0.2667,1.4328 H 14.1367 V 1.56445 c 0.3814,0.10179 0.6669,0.26099 0.8002,0.39148 z"
       fill="#a6191b"
       id="path293" />
    <path
       d="M 13.6039,1.75507 V 3.39255 H 12.8037 V 1.30469 c 0.3814,0.11633 0.5335,0.14913 0.8002,0.29826 z"
       fill="#a6191b"
       id="path295" />
    <path
       d="M 12.27,1.54965 V 3.39182 H 11.4697 V 1.04297 l 0.8003,0.1468 z"
       fill="#a6191b"
       id="path297" />
    <path
       d="M 8.26911,1.54965 V 3.39182 H 9.06934 V 1.04297 l -0.80023,0.1468 z"
       fill="#a6191b"
       id="path299" />
    <path
       d="M 6.93513,1.75507 V 3.39255 H 7.73535 V 1.30469 C 7.35399,1.42102 7.20187,1.45382 6.93513,1.60295 Z"
       fill="#a6191b"
       id="path301" />
    <path
       d="M 5.60114,1.95854 5.86788,3.39133 H 6.40137 V 1.56445 C 6.02001,1.66624 5.73451,1.82544 5.60114,1.95593 Z"
       fill="#a6191b"
       id="path303" />
    <path
       d="m 13.7877,0.351562 h -1.3551 v 0.328839 h 1.3551 z"
       fill="#d44c4c"
       id="path305" />
    <path
       d="M 8.07966,0.351562 H 6.72461 v 0.328839 h 1.35505 z"
       fill="#0b87bb"
       id="path307" />
    <path
       d="m 13.7877,0.351562 h -1.3551 v 0.109613 h 1.3551 z"
       fill="#f3a05b"
       id="path309" />
    <path
       d="M 8.07966,0.351562 H 6.72461 v 0.109613 h 1.35505 z"
       fill="#66c0ec"
       id="path311" />
    <path
       d="m 7.12151,17.2663 c -0.60017,0 -1.08831,-0.4776 -1.08831,-1.0648 0,-0.5872 0.48814,-1.0648 1.08831,-1.0648 h 6.26839 c 0.6002,0 1.0883,0.4776 1.0883,1.0648 0,0.5872 -0.4881,1.0648 -1.0883,1.0648 z"
       fill="#dbdcdd"
       id="path313" />
    <path
       d="M 12.4323,15.3477 H 8.0791 v 1.7068 h 4.3532 z"
       fill="#29373a"
       id="path315" />
    <path
       d="m 13.3902,15.3477 h -0.9576 v 1.7068 h 0.9576 c 0.4828,0 0.8723,-0.381 0.8723,-0.8534 0,-0.4724 -0.3921,-0.8534 -0.8723,-0.8534 z"
       fill="#163675"
       id="path317" />
    <path
       d="M 12.4326,16.7387 V 15.666 h 0.9576 c 0.3014,0 0.5495,0.2401 0.5495,0.5376 0,0.2976 -0.2454,0.5351 -0.5495,0.5351 z"
       fill="#436aac"
       id="path319" />
    <path
       d="m 7.12127,17.0545 h 0.9576 v -1.7068 h -0.9576 c -0.4828,0 -0.87225,0.381 -0.87225,0.8534 0,0.4724 0.38945,0.8534 0.87225,0.8534 z"
       fill="#163675"
       id="path321" />
    <path
       d="m 8.07936,15.6641 v 1.0726 H 7.12175 c -0.30141,0 -0.54948,-0.2401 -0.54948,-0.535 0,-0.2949 0.2454,-0.5376 0.54948,-0.5376 z"
       fill="#436aac"
       id="path323" />
    <path
       d="m 13.6649,16.2015 c 0,0.2584 -0.2134,0.4672 -0.4775,0.4672 -0.264,0 -0.4774,-0.2088 -0.4774,-0.4672 0,-0.2583 0.2134,-0.4671 0.4774,-0.4671 0.2641,0 0.4775,0.2088 0.4775,0.4671 z"
       fill="#163675"
       id="path325" />
    <path
       d="m 7.80454,16.2015 c 0,0.2584 -0.21339,0.4672 -0.47746,0.4672 -0.26408,0 -0.47747,-0.2088 -0.47747,-0.4672 0,-0.2583 0.21339,-0.4671 0.47747,-0.4671 0.26407,0 0.47746,0.2088 0.47746,0.4671 z"
       fill="#163675"
       id="path327" />
    <path
       d="m 12.537,4.17578 v 1.92179 h -0.4617 c -0.1563,0 -0.2621,-0.04368 -0.3199,-0.13563 C 11.6977,5.87228 11.6689,5.73666 11.6641,5.55735 V 5.51597 c 0,-0.1908 0.0288,-0.33562 0.0841,-0.43447 0.0578,-0.09885 0.1612,-0.14712 0.3151,-0.14712 h 0.1659 v -0.7586 h 0.3054 z m -0.3054,0.99767 h -0.1058 c -0.0649,0 -0.1058,0.02299 -0.1251,0.07127 -0.0192,0.04827 -0.0288,0.13792 -0.0288,0.27125 v 0.03678 c 0,0.11264 0.012,0.1954 0.0313,0.24367 0.0192,0.04828 0.0601,0.07357 0.1226,0.07357 H 12.234 V 5.17116 Z"
       fill="#f1f2f2"
       id="path329" />
    <path
       d="m 10.6761,4.31049 c 0.0684,-0.08981 0.1793,-0.13471 0.3303,-0.13471 0.151,0 0.2619,0.0449 0.3327,0.13695 0.0707,0.09205 0.1061,0.22675 0.1061,0.41085 V 5.5812 c 0,0.34349 -0.1462,0.51637 -0.4435,0.51637 -0.1534,0 -0.2619,-0.04266 -0.328,-0.13022 C 10.6077,5.87979 10.5723,5.75182 10.5723,5.58344 V 4.72582 c 0,-0.18409 0.033,-0.32104 0.1038,-0.41084 z m 0.4388,0.17736 C 11.0984,4.44519 11.0607,4.42274 11.0064,4.42274 c -0.0543,0 -0.0897,0.02245 -0.1085,0.06735 -0.0166,0.0449 -0.026,0.12124 -0.026,0.229 v 0.87333 c 0,0.08981 0.0094,0.15491 0.026,0.19532 0.0165,0.04042 0.0519,0.06062 0.1038,0.06062 0.0519,0 0.0873,-0.0202 0.1085,-0.06062 0.0212,-0.04041 0.0307,-0.10551 0.0307,-0.19307 V 4.71909 c 0,-0.11001 -0.0095,-0.18634 -0.026,-0.23124 z"
       fill="#f1f2f2"
       id="path331" />
    <path
       d="M 10.3539,4.17578 V 6.09757 H 10.0652 V 4.42635 H 9.69922 V 4.17808 h 0.65468 z"
       fill="#f1f2f2"
       id="path333" />
    <path
       d="M 9.53986,4.17578 V 6.09757 H 9.2627 V 4.17578 Z"
       fill="#f1f2f2"
       id="path335" />
    <path
       d="M 8.01252,4.17578 V 6.09757 H 7.73535 V 4.17578 Z"
       fill="#f1f2f2"
       id="path337" />
    <path
       d="m 9.04485,5.55287 c 0,0.16878 -0.04367,0.30176 -0.13099,0.39893 C 8.82714,6.04898 8.70622,6.09757 8.55111,6.09757 8.40821,6.09757 8.2818,6.06006 8.17188,5.98505 V 5.6168 c 0.09038,0.05626 0.16671,0.0959 0.229,0.11891 0.0629,0.02302 0.12031,0.03453 0.17221,0.03453 0.06229,0 0.10993,-0.01663 0.1429,-0.04987 C 8.74958,5.68712 8.76638,5.63768 8.76638,5.57205 8.76638,5.53539 8.75905,5.503 8.74439,5.47487 8.72973,5.44589 8.70806,5.41819 8.67935,5.39176 8.65126,5.36534 8.59355,5.32314 8.50622,5.26518 8.42439,5.21147 8.36302,5.1599 8.3221,5.11046 8.28119,5.06102 8.24852,5.00348 8.22409,4.93785 8.19966,4.87221 8.18745,4.79549 8.18745,4.70769 c 0,-0.16537 0.04,-0.29536 0.12,-0.38998 0.08061,-0.09462 0.19175,-0.14193 0.33343,-0.14193 0.06962,0 0.13588,0.01151 0.19878,0.03452 0.06351,0.02302 0.12977,0.05541 0.19878,0.09718 L 8.94683,4.61563 C 8.87538,4.57471 8.81615,4.54616 8.76912,4.52996 8.72271,4.51377 8.67691,4.50567 8.63172,4.50567 8.57798,4.50567 8.53676,4.52314 8.50806,4.55809 8.47935,4.59304 8.465,4.63865 8.465,4.69491 c 0,0.03495 0.0058,0.06563 0.01741,0.09206 0.0116,0.02557 0.02992,0.05072 0.05496,0.07544 0.02565,0.02386 0.0858,0.06734 0.18046,0.13042 0.12519,0.08353 0.21099,0.1675 0.2574,0.25189 0.04641,0.08354 0.06962,0.18625 0.06962,0.30815 z"
       fill="#ffffff"
       id="path339" />
  </g>
  <defs
     id="defs346">
    <clipPath
       id="clip0_868_55194">
      <rect
         width="19"
         height="30"
         fill="#ffffff"
         id="rect343"
         x="0"
         y="0" />
    </clipPath>
  </defs>
</svg>
